HIERARCHY
ROOT ui
{
	 OFFSET 0 0 0
	 CHANNELS 3 XPosition YPosition Z Position
	 EndSite
	 {
	 OFFSET 0 -1 0
	 }
}
ROOT li
{
	 OFFSET 0 0 0
	 CHANNELS 3 XPosition YPosition Z Position
	 EndSite
	 {
	 OFFSET 0 -1 0
	 }
}
ROOT ul
{
	 OFFSET 0 0 0
	 CHANNELS 3 XPosition YPosition Z Position
	 EndSite
	 {
	 OFFSET 0 -1 0
	 }
}
ROOT ll
{
	 OFFSET 0 0 0
	 CHANNELS 3 XPosition YPosition Z Position
	 EndSite
	 {
	 OFFSET 0 -1 0
	 }
}
ROOT tt
{
	 OFFSET 0 0 0
	 CHANNELS 3 XPosition YPosition Z Position
	 EndSite
	 {
	 OFFSET 0 -1 0
	 }
}
ROOT tb
{
	 OFFSET 0 0 0
	 CHANNELS 3 XPosition YPosition Z Position
	 EndSite
	 {
	 OFFSET 0 -1 0
	 }
}
ROOT td
{
	 OFFSET 0 0 0
	 CHANNELS 3 XPosition YPosition Z Position
	 EndSite
	 {
	 OFFSET 0 -1 0
	 }
}
ROOT v
{
	 OFFSET 0 0 0
	 CHANNELS 3 XPosition YPosition Z Position
	 EndSite
	 {
	 OFFSET 0 -1 0
	 }
}
ROOT bn
{
	 OFFSET 0 0 0
	 CHANNELS 3 XPosition YPosition Z Position
	 EndSite
	 {
	 OFFSET 0 -1 0
	 }
}
MOTION
Frames: 24
Frame Time: 0.002
0.007346479892730713	0.0010334559679031372	0		0.5036815185546875	-2.363060791015625	0		-1.123863525390625	-0.006314453125	0		-0.7215020141601562	-2.440114990234375	0		1.49269287109375	-0.34555279541015627	0		3.109640869140625	0.07311324310302734	0		4.59734912109375	0.2585452575683594	0		5.62871142578125	0.1366469268798828	0		-0.43761395263671876	5.86075146484375	0		
0.007319307804107666	0.004057024002075195	0		0.5043767395019532	-2.359112548828125	0		-1.12693310546875	-0.006109237194061279	0		-0.7578126831054688	-2.4354990234375	0		1.47590380859375	-0.3224769592285156	0		3.078723388671875	0.08318640899658203	0		4.60431103515625	0.25790545654296876	0		5.617197265625	0.12897549438476563	0		-0.4409461669921875	5.8618857421875	0		
0.05128233337402344	-5.313060283660888E-4	0		0.5459293212890625	-2.371734375	0		-1.0640296630859376	-0.014821806907653808	0		-0.6952295532226562	-2.445258056640625	0		1.4837025146484375	-0.33574246215820314	0		3.071673095703125	0.076929443359375	0		4.5872841796875	0.2515970153808594	0		5.61505859375	0.12789942169189453	0		-0.3099009399414063	5.88114013671875	0		
-0.026557046890258788	0.0016084979772567748	0		0.4819736328125	-2.356857421875	0		-1.1408709716796874	-0.012555275917053223	0		-0.7561521606445313	-2.42726708984375	0		1.460815185546875	-0.33456536865234376	0		3.073736083984375	0.07055123901367187	0		4.58445458984375	0.25109774780273436	0		5.6100791015625	0.11482147216796874	0		-0.31299032592773435	5.8832734375	0		
0.0426512336730957	-0.0033352720737457276	0		0.512748046875	-2.37131884765625	0		-1.073678466796875	-0.018331171035766602	0		-0.7384138793945313	-2.443387451171875	0		1.4580462646484376	-0.33466290283203126	0		3.086001708984375	0.06903740692138671	0		4.5817587890625	0.2506103057861328	0		5.60880029296875	0.1085635223388672	0		-0.44729931640625	5.86229248046875	0		
-0.006864497184753418	0.001426192045211792	0		0.48595523071289065	-2.365947509765625	0		-1.138078857421875	-0.0052173490524291995	0		-0.7722002563476562	-2.43676220703125	0		1.4615423583984375	-0.32684103393554687	0		3.081605712890625	0.08077577209472656	0		4.5832978515625	0.25607989501953127	0		5.61628955078125	0.11933441925048828	0		-0.44916162109375	5.8624345703125	0		
0.043741973876953125	0.0027426180839538574	0		0.5283699340820313	-2.3585732421875	0		-1.06651904296875	-0.007072906970977783	0		-0.7528497924804688	-2.4329033203125	0		1.45908642578125	-0.32692547607421873	0		3.070111572265625	0.07463148498535156	0		4.58091064453125	0.25562611389160156	0		5.60744970703125	0.12379904174804687	0		-0.45088525390625	5.862576171875	0		
-0.01153016185760498	0.001604159951210022	0		0.48074118041992187	-2.365883544921875	0		-1.0687686767578124	-0.006864408016204834	0		-0.7444930419921875	-2.44089111328125	0		1.473725341796875	-0.33225241088867186	0		3.08185498046875	0.07316563415527344	0		4.58460205078125	0.24910711669921876	0		5.60583203125	0.12287065887451172	0		-0.31917547607421876	5.88175830078125	0		
0.03637277603149414	-4.9830999225378034E-5	0		0.5204651489257812	-2.362472412109375	0		-1.0830078125	-0.017486438751220704	0		-0.7587415771484375	-2.4345498046875	0		1.44857080078125	-0.334985107421875	0		3.056818115234375	0.07525995635986328	0		4.568671875	0.256906494140625	0		5.6043369140625	0.12199568176269532	0		-0.3215921325683594	5.88389208984375	0		
-0.043553268432617184	-8.121230006217957E-4	0		0.4664031066894531	-2.356671630859375	0		-1.158891357421875	-0.015196161270141601	0		-0.7510114135742187	-2.442542724609375	0		1.4496915283203125	-0.3310968322753906	0		3.0729931640625	0.07976301574707031	0		4.5706728515625	0.24846762084960938	0		5.60713818359375	0.10372257995605469	0		-0.4552337341308594	5.86297265625	0		
0.042582904815673825	-0.010055554389953614	0		0.4763570556640625	-2.362823486328125	0		-1.148463134765625	-0.004197773933410645	0		-0.7838807373046875	-2.435937255859375	0		1.4507763671875	-0.34120553588867186	0		3.0892197265625	0.0762765121459961	0		4.571037109375	0.2530797882080078	0		5.61103076171875	0.12698822784423827	0		-0.4261518249511719	5.88063427734375	0		
-0.02989872360229492	-0.003927982091903687	0		0.47864743041992186	-2.358864501953125	0		-1.1500277099609375	-0.0040368189811706544	0		-0.7506907348632812	-2.43833544921875	0		1.4724361572265625	-0.3246191711425781	0		3.06970947265625	0.07934041595458985	0		4.58150830078125	0.2535627899169922	0		5.60351904296875	0.1316895751953125	0		-0.4574731750488281	5.86318701171875	0		
0.02977349662780762	2.0003700256347655E-4	0		0.51301318359375	-2.362397216796875	0		-1.077447998046875	-0.006015728950500488	0		-0.799139892578125	-2.42851318359375	0		1.4279886474609376	-0.3260337219238281	0		3.039337890625	0.0805857162475586	0		4.56604296875	0.2474607696533203	0		5.5995849609375	0.11901366424560547	0		-0.32509814453125	5.882255859375	0		
-0.046432876586914064	0.0023813529014587403	0		0.4695550537109375	-2.3657529296875	0		-1.0908448486328124	-0.016712160110473634	0		-0.7248297729492188	-2.4475693359375	0		1.463638916015625	-0.33265924072265624	0		3.071987548828125	0.07188898468017578	0		4.56483056640625	0.24717002868652344	0		5.59576953125	0.10639033508300781	0		-0.3259008483886719	5.8823203125	0		
0.027477666854858397	2.693270146846771E-4	0		0.49430023193359374	-2.368149169921875	0		-1.1577813720703125	-0.007599500179290772	0		-0.79294140625	-2.43946533203125	0		1.4256475830078126	-0.3261580810546875	0		3.03705322265625	0.08023819732666015	0		4.567873046875	0.2528399200439453	0		5.5978974609375	0.11263404846191406	0		-0.459885009765625	5.8634111328125	0		
-0.023401353836059572	0.002059079885482788	0		0.4693385009765625	-2.362787109375	0		-1.080645263671875	-0.005705155849456787	0		-0.7579912109375	-2.439947509765625	0		1.447771240234375	-0.32357293701171874	0		3.065138916015625	0.07863568878173828	0		4.56698779296875	0.25259149169921874	0		5.60437939453125	0.111843017578125	0		-0.46043609619140624	5.8634619140625	0		
0.028889577865600587	0.0032585580348968505	0		0.46847747802734374	-2.362797119140625	0		-1.1553551025390625	-0.003491339921951294	0		-0.7917908325195312	-2.43538330078125	0		1.4270224609375	-0.32332745361328125	0		3.058394775390625	0.07757838439941406	0		4.566267578125	0.2523606719970703	0		5.59675048828125	0.11681230926513672	0		-0.4608538513183594	5.863501953125	0		
0.025276927947998046	3.104879856109619E-4	0		0.49171621704101565	-2.36818359375	0		-1.0819462890625	-0.005572754859924317	0		-0.724591796875	-2.443388671875	0		1.4633582763671875	-0.32896133422851564	0		3.072814453125	0.07620520782470704	0		4.56162060546875	0.2462088623046875	0		5.59634033203125	0.11636383819580078	0		-0.32782818603515623	5.88247216796875	0		
0.02487375831604004	3.065569996833801E-4	0		0.4553861694335937	-2.35665087890625	0		-1.1684945068359376	-0.014194697380065917	0		-0.806904052734375	-2.430090576171875	0		1.4429588623046874	-0.3277170715332031	0		3.034465576171875	0.07965914916992188	0		4.56122802734375	0.24601011657714844	0		5.59311669921875	0.10394954681396484	0		-0.3289476013183594	5.8844990234375	0		
0.03446834182739258	-0.009861751556396485	0		0.46490701293945313	-2.36583544921875	0		-1.0907066650390624	-0.012376127243041992	0		-0.7644676513671875	-2.44473974609375	0		1.4426976318359375	-0.327784912109375	0		3.054108642578125	0.0722210464477539	0		4.5650810546875	0.2517612609863281	0		5.59361474609375	0.09835075378417969	0		-0.46131497192382814	5.86355224609375	0		
-0.01562032413482666	-0.008108052253723144	0		0.468795166015625	-2.360937744140625	0		-1.1438572998046874	-0.014537528038024902	0		-0.793515869140625	-2.435287353515625	0		1.43460888671875	-0.3257326354980469	0		3.08104443359375	0.07467414093017578	0		4.55907373046875	0.25767730712890624	0		5.60509765625	0.12177755737304688	0		-0.49333364868164065	5.85704345703125	0		
0.02757013702392578	0.0031868209838867186	0		0.4957152404785156	-2.362406005859375	0		-1.078654052734375	-0.002552730083465576	0		-0.7565836181640625	-2.43587451171875	0		1.4287022705078125	-0.31971527099609376	0		3.052199462890625	0.08400137329101562	0		4.56499560546875	0.25141659545898437	0		5.6009326171875	0.138898681640625	0		-0.461046630859375	5.8635244140625	0		
-0.05034634780883789	0.0023650939464569093	0		0.46470156860351564	-2.365973876953125	0		-1.1565706787109375	-0.003346323013305664	0		-0.79556689453125	-2.437285888671875	0		1.442672607421875	-0.32800979614257814	0		3.04922900390625	0.078930908203125	0		4.5571396484375	0.25338494873046874	0		5.59292578125	0.10255878448486327	0		-0.32748037719726564	5.88241455078125	0		
0.024808921813964845	1.4749200642108918E-4	0		0.5068895874023438	-2.3626865234375	0		-1.0824154052734376	-0.005525128841400146	0		-0.7723780517578125	-2.433674560546875	0		1.442845703125	-0.32808499145507813	0		3.054300537109375	0.07174468994140625	0		4.56119921875	0.2451829376220703	0		5.59598193359375	0.11428245544433593	0		-0.32717724609375	5.88237646484375	0		
